<?xml version="1.0" encoding="utf-8"?>
<!-- Generator: Adobe Illustrator 26.0.2, SVG Export Plug-In . SVG Version: 6.00 Build 0)  -->
<svg version="1.1" id="Layer_1" xmlns="http://www.w3.org/2000/svg" xmlns:xlink="http://www.w3.org/1999/xlink" x="0px" y="0px"
	 viewBox="0 0 624 92.16" enable-background="new 0 0 624 92.16" xml:space="preserve">
<g>
	<g>
		<polygon fill-rule="evenodd" clip-rule="evenodd" fill="#ED6E00" points="26.51,15.08 23.29,26.61 32.01,26.44 		"/>
		<polygon fill-rule="evenodd" clip-rule="evenodd" fill="#00669E" points="42.37,33.65 37.8,35.38 40.77,41.5 		"/>
		<polygon fill-rule="evenodd" clip-rule="evenodd" fill="#00B8E0" points="37.22,34.18 42.68,32.12 43.61,27.54 34.1,27.73 		"/>
		<polygon fill-rule="evenodd" clip-rule="evenodd" fill="#F7B512" points="39.87,42.69 36.56,35.85 24.53,40.39 		"/>
		<polygon fill-rule="evenodd" clip-rule="evenodd" fill="#DBE836" points="48.95,29.75 48.93,27.44 44.97,27.52 44.15,31.56 		"/>
		<polygon fill-rule="evenodd" clip-rule="evenodd" fill="#ED6E00" points="49.04,44.07 48.96,31.16 43.83,33.1 41.82,42.98 		"/>
		<polygon fill-rule="evenodd" clip-rule="evenodd" fill="#D1CCC4" points="55.38,27.31 50.26,27.41 50.27,29.25 		"/>
		<path fill-rule="evenodd" clip-rule="evenodd" fill="#DBE836" d="M13.34,26.81c2.1-5.81,6.52-10.52,12.14-13l-3.58,12.83
			L13.34,26.81z"/>
		<path fill-rule="evenodd" clip-rule="evenodd" fill="#00B8E0" d="M16.09,47.48C13.51,43.81,12,39.33,12,34.5
			c0-2.21,0.32-4.35,0.91-6.36l8.63-0.17L16.09,47.48z"/>
		<path fill-rule="evenodd" clip-rule="evenodd" fill="#707061" d="M25.66,55.27c-3.35-1.45-6.28-3.68-8.56-6.46l5.82-20.86
			l9.72-0.19l3.34,6.89l-16.68,6.3l9.53,1.43L25.66,55.27z"/>
		<path fill-rule="evenodd" clip-rule="evenodd" fill="#ED6E00" d="M37.63,56.92c-0.99,0.13-1.99,0.2-3.01,0.2
			c-2.71,0-5.31-0.48-7.72-1.35l3.25-13.19l10.09,1.51L37.63,56.92z"/>
		<path fill-rule="evenodd" clip-rule="evenodd" fill="#D1CCC4" d="M45.5,54.33c-1.99,1.1-4.17,1.9-6.48,2.36l2.26-11.08L45.5,54.33
			z"/>
		<path fill-rule="evenodd" clip-rule="evenodd" fill="#707061" d="M49.1,51.87c-0.77,0.65-1.59,1.24-2.45,1.78l-4.49-9.27
			l6.89,1.03L49.1,51.87z"/>
		<path fill-rule="evenodd" clip-rule="evenodd" fill="#D1CCC4" d="M54,46.15c-1,1.66-2.21,3.18-3.59,4.53l-0.03-5.07L54,46.15z"/>
		<path fill-rule="evenodd" clip-rule="evenodd" fill="#DBE836" d="M56.38,28.35c0.55,1.95,0.85,4.02,0.85,6.15
			c0,3.76-0.92,7.3-2.54,10.41l-4.32-0.65l-0.09-13.61L56.38,28.35z"/>
		<path fill-rule="evenodd" clip-rule="evenodd" fill="#007A5E" d="M50.2,18.11c2.31,2.2,4.15,4.88,5.37,7.88l-5.32,0.1L50.2,18.11z
			"/>
		<path fill-rule="evenodd" clip-rule="evenodd" fill="#ED6E00" d="M47.36,15.82c0.52,0.35,1.02,0.73,1.51,1.13l0.06,9.17
			l-3.68,0.07L47.36,15.82z"/>
		<path fill-rule="evenodd" clip-rule="evenodd" fill="#F7B512" d="M37.55,12.08c3.11,0.4,6.02,1.44,8.61,2.98l-2.28,11.16
			l-7.95,0.15L37.55,12.08z"/>
		<path fill-rule="evenodd" clip-rule="evenodd" fill="#00B8E0" d="M34.61,11.89c0.54,0,1.08,0.02,1.62,0.06l-1.64,14.45l-1.13,0.02
			l-6.41-13.23C29.42,12.34,31.96,11.89,34.61,11.89z"/>
	</g>
	<path fill-rule="evenodd" clip-rule="evenodd" fill="#00669E" d="M76.11,30.04V13.67H65.08v42.42h11.03V38.71h15.92v17.38h11.03
		V13.67H92.03v16.37H76.11L76.11,30.04z M131.57,12.27c-12.21,0-23.46,9-23.46,21.83c0,13.73,9.84,23.4,23.46,23.4
		c13.61,0,23.46-9.68,23.46-23.4C155.03,21.27,143.78,12.27,131.57,12.27L131.57,12.27z M131.57,22.95c6.58,0,11.98,5.34,11.98,11.2
		c0,7.31-5.4,12.66-11.98,12.66c-6.58,0-11.98-5.35-11.98-12.66C119.59,28.3,124.99,22.95,131.57,22.95L131.57,22.95z M160.15,56.09
		h15.64c11.76,0,21.55-9.28,21.55-21.21c0-11.93-9.73-21.21-21.55-21.21h-15.64V56.09L160.15,56.09z M171.18,23.01h2.59
		c7.09,0,12.09,4.28,12.09,11.87c0,8.27-5.63,11.87-12.21,11.87h-2.47V23.01L171.18,23.01z M213.48,13.67h-11.03v42.42h24.25v-9.34
		h-13.22V13.67z"/>
	<path fill-rule="evenodd" clip-rule="evenodd" fill="#00B8E0" d="M240.89,56.09h11.03V30.1h0.11l20.2,25.99h11.03V13.67h-11.03
		v25.93h-0.11l-20.2-25.93h-11.03V56.09L240.89,56.09z M311.77,12.27c-12.21,0-23.46,9-23.46,21.83c0,13.73,9.84,23.4,23.46,23.4
		c13.61,0,23.46-9.68,23.46-23.4C335.23,21.27,323.98,12.27,311.77,12.27L311.77,12.27z M311.77,22.95c6.58,0,11.98,5.34,11.98,11.2
		c0,7.31-5.4,12.66-11.98,12.66c-6.58,0-11.98-5.35-11.98-12.66C299.79,28.3,305.19,22.95,311.77,22.95L311.77,22.95z M340.35,56.09
		h11.03V30.1h0.11l20.2,25.99h11.03V13.67h-11.03v25.93h-0.11l-20.2-25.93h-11.03V56.09L340.35,56.09z M389.29,33.81v8.44h16.09
		v-8.44H389.29L389.29,33.81z M411.96,56.09h11.03V42.03h6.24c9.62,0,15.02-4.39,15.02-14.4c0-9.73-6.3-13.95-15.41-13.95h-16.88
		V56.09L411.96,56.09z M422.98,22.56h1.86c4.28,0,7.93,0.06,7.93,5.4c0,5.18-3.94,5.18-7.93,5.18h-1.86V22.56L422.98,22.56z
		 M471.08,38.71c6.02-1.07,9.28-6.13,9.28-11.98c0-9.06-6.36-13.05-14.74-13.05h-16.48v42.42h11.03V39.77h0.11l10.41,16.31h13.73
		L471.08,38.71L471.08,38.71z M460.17,22.11h1.07c3.6,0,7.65,0.68,7.65,5.29c0,4.61-4.05,5.29-7.65,5.29h-1.07V22.11L460.17,22.11z
		 M508.71,12.27c-12.21,0-23.46,9-23.46,21.83c0,13.73,9.84,23.4,23.46,23.4c13.61,0,23.46-9.68,23.46-23.4
		C532.17,21.27,520.92,12.27,508.71,12.27L508.71,12.27z M508.71,22.95c6.58,0,11.98,5.34,11.98,11.2c0,7.31-5.4,12.66-11.98,12.66
		c-6.58,0-11.98-5.35-11.98-12.66C496.73,28.3,502.13,22.95,508.71,22.95L508.71,22.95z M561.65,23.01v-9.34h-24.36v42.42h11.03
		V39.44h12.09V30.1h-12.09v-7.09H561.65L561.65,23.01z M578.81,13.67h-11.03v42.42h11.03V13.67L578.81,13.67z M602.89,23.01H612
		v-9.34h-29.25v9.34h9.11v33.08h11.03V23.01z"/>
	<path fill-rule="evenodd" clip-rule="evenodd" fill="#00669E" d="M388.99,67.61l-2.89,12.46h2.45l0.45-2.1h2.49l0.46,2.1h2.63
		l-2.99-12.46H388.99L388.99,67.61z M391.12,76.03h-1.74l0.53-3.32l0.26-1.88h0.03l0.28,1.88L391.12,76.03L391.12,76.03z
		 M395.57,67.61v12.46h2.46v-5.72l-0.02-0.51l-0.12-1.26l0.03-0.03l3.04,7.52h2.33V67.61h-2.46v5.6c0,0.64,0.05,1.29,0.2,1.88
		L401,75.13l-3.07-7.52H395.57L395.57,67.61z M407.87,67.61v12.46h2.46V67.61H407.87L407.87,67.61z M412.08,67.61v12.46h2.46v-5.72
		l-0.02-0.51l-0.12-1.26l0.03-0.03l3.04,7.52h2.33V67.61h-2.46v5.6c0,0.64,0.05,1.29,0.2,1.88l-0.03,0.03l-3.07-7.52H412.08
		L412.08,67.61z M423.75,80.07c3.88,0,5.25-2.58,5.25-6.13c0-6.96-5.16-6.33-5.59-6.33h-1.87v12.46H423.75L423.75,80.07z
		 M424.01,77.86v-8.03c2.03,0,2.53,2.51,2.53,4.1C426.54,75.48,426,77.96,424.01,77.86L424.01,77.86z M430.31,67.61v12.46h4.99
		v-2.31h-2.53v-2.81h2.2v-2.31h-2.2v-2.71h2.49v-2.31H430.31L430.31,67.61z M439.25,80.07v-5.14l0.55,0.03
		c2.28,0,3.78-1.34,3.78-3.67c0-4.01-3.7-3.68-4.23-3.68h-2.56v12.46H439.25L439.25,80.07z M439.25,69.65h0.46
		c1.06,0,1.4,0.73,1.4,1.62c0,1.27-0.68,1.72-1.87,1.67V69.65L439.25,69.65z M444.84,67.61v12.46h4.99v-2.31h-2.53v-2.81h2.2v-2.31
		h-2.2v-2.71h2.49v-2.31H444.84L444.84,67.61z M451.31,67.61v12.46h2.46v-5.72l-0.02-0.51l-0.12-1.26l0.03-0.03l3.04,7.52h2.33
		V67.61h-2.46v5.6c0,0.64,0.05,1.29,0.2,1.88l-0.03,0.03l-3.07-7.52H451.31L451.31,67.61z M462.98,80.07c3.88,0,5.26-2.58,5.26-6.13
		c0-6.96-5.16-6.33-5.59-6.33h-1.87v12.46H462.98L462.98,80.07z M463.24,77.86v-8.03c2.03,0,2.53,2.51,2.53,4.1
		C465.77,75.48,465.23,77.96,463.24,77.86L463.24,77.86z M469.54,67.61v12.46h4.99v-2.31H472v-2.81h2.2v-2.31H472v-2.71h2.49v-2.31
		H469.54L469.54,67.61z M476.02,67.61v12.46h2.46v-5.72l-0.02-0.51l-0.12-1.26l0.03-0.03l3.04,7.52h2.33V67.61h-2.46v5.6
		c0,0.64,0.05,1.29,0.2,1.88l-0.03,0.03l-3.07-7.52H476.02L476.02,67.61z M484.86,67.61v2.31h1.93v10.15h2.46V69.93h1.95v-2.31
		H484.86L484.86,67.61z M500.28,68.03c-0.68-0.4-1.39-0.61-2.18-0.61c-2.12,0-3.26,1.7-3.26,3.67c0,1.82,0.88,2.74,2.3,3.7
		c0.69,0.5,1.45,0.86,1.45,1.82c0,0.83-0.63,1.36-1.42,1.36c-0.73,0-1.29-0.26-1.87-0.66v2.35c0.56,0.41,1.42,0.63,2.11,0.63
		c2.31,0,3.59-1.67,3.59-3.88c0-3.37-3.75-3.49-3.75-5.54c0-0.76,0.48-1.22,1.24-1.22c0.68,0,1.29,0.36,1.78,0.79V68.03
		L500.28,68.03z M501.69,67.61l2.51,12.46h2.15l1.42-6.58c0.18-0.76,0.27-1.52,0.4-2.28h0.03c0.12,0.76,0.26,1.52,0.35,2.28
		l1.27,6.58h2.13l2.58-12.46h-2.58l-0.98,5.98c-0.15,0.88-0.17,1.74-0.25,2.61h-0.03l-1.59-8.59h-1.95l-1.24,5.95
		c-0.18,0.88-0.25,1.77-0.36,2.64h-0.03c-0.08-0.88-0.12-1.77-0.26-2.64l-1.06-5.95H501.69L501.69,67.61z M515.54,67.61v12.46H518
		V67.61H515.54L515.54,67.61z M519.12,67.61v2.31h1.93v10.15h2.46V69.93h1.95v-2.31H519.12L519.12,67.61z M526.54,67.61v2.31h3.62
		l-4.15,10.15h7.5v-2.31h-3.92l4.26-10.15H526.54L526.54,67.61z M534.99,67.61v12.46h4.99v-2.31h-2.53v-2.81h2.2v-2.31h-2.2v-2.71
		h2.49v-2.31H534.99L534.99,67.61z M543.93,80.07v-5.75h0.03l2.16,5.75h2.59l-2.16-5.67c1.22-0.68,1.77-1.85,1.77-3.22
		c0-3.4-2.81-3.57-4.38-3.57h-2.48v12.46H543.93L543.93,80.07z M543.93,69.65h0.33c1.24-0.07,1.67,0.66,1.67,1.55
		c0,1.03-0.45,1.78-1.57,1.78l-0.43-0.02V69.65L543.93,69.65z M550.22,67.61v12.46h5.04v-2.31h-2.58V67.61H550.22L550.22,67.61z
		 M558.54,67.61l-2.89,12.46h2.45l0.45-2.1h2.49l0.46,2.1h2.63l-2.99-12.46H558.54L558.54,67.61z M560.67,76.03h-1.74l0.53-3.32
		l0.26-1.88h0.03l0.28,1.88L560.67,76.03L560.67,76.03z M565.11,67.61v12.46h2.46v-5.72l-0.02-0.51l-0.12-1.26l0.03-0.03l3.04,7.52
		h2.33V67.61h-2.46v5.6c0,0.64,0.05,1.29,0.2,1.88l-0.03,0.03l-3.07-7.52H565.11L565.11,67.61z M576.78,80.07
		c3.88,0,5.25-2.58,5.25-6.13c0-6.96-5.16-6.33-5.59-6.33h-1.87v12.46H576.78L576.78,80.07z M577.04,77.86v-8.03
		c2.03,0,2.53,2.51,2.53,4.1C579.57,75.48,579.03,77.96,577.04,77.86L577.04,77.86z M586.17,67.61v12.46h2.46v-5.72l-0.02-0.51
		l-0.12-1.26l0.03-0.03l3.04,7.52h2.33V67.61h-2.46v5.6c0,0.64,0.05,1.29,0.2,1.88l-0.03,0.03l-3.07-7.52H586.17L586.17,67.61z
		 M598.1,80.07v-5.14l0.54,0.03c2.28,0,3.78-1.34,3.78-3.67c0-4.01-3.7-3.68-4.23-3.68h-2.56v12.46H598.1L598.1,80.07z M598.1,69.65
		h0.46c1.06,0,1.4,0.73,1.4,1.62c0,1.27-0.68,1.72-1.87,1.67V69.65L598.1,69.65z M607.62,67.42c-2.2,0-4.38,1.75-4.38,6.43
		c0,4.68,2.18,6.43,4.38,6.43c2.2,0,4.38-1.75,4.38-6.43C612,69.17,609.82,67.42,607.62,67.42L607.62,67.42z M605.87,73.84
		c0-1.11,0.12-4.15,1.75-4.15c1.64,0,1.75,3.04,1.75,4.15c0,0.99-0.12,4.15-1.75,4.15C605.99,77.99,605.87,74.84,605.87,73.84z"/>
</g>
</svg>
