<?xml version="1.0" encoding="utf-8"?>
<!-- Generator: Adobe Illustrator 26.0.2, SVG Export Plug-In . SVG Version: 6.00 Build 0)  -->
<svg version="1.1" id="Layer_1" xmlns="http://www.w3.org/2000/svg" xmlns:xlink="http://www.w3.org/1999/xlink" x="0px" y="0px"
	 viewBox="0 0 624 261.6" enable-background="new 0 0 624 261.6" xml:space="preserve">
<path fill-rule="evenodd" clip-rule="evenodd" fill="#00669E" d="M131,11.8c32.86,0,62.61,13.32,84.15,34.86
	c11.48,11.48,20.63,25.3,26.67,40.68h326.72c23.91,0,43.47,19.56,43.47,43.47v0c0,23.91-19.56,43.47-43.47,43.47H241.81
	c-6.04,15.38-15.18,29.2-26.66,40.68c-21.53,21.53-51.29,34.86-84.15,34.86c-32.86,0-62.62-13.32-84.15-34.86
	C25.32,193.41,12,163.66,12,130.8c0-32.86,13.32-62.62,34.86-84.15C68.39,25.12,98.14,11.8,131,11.8z"/>
<polygon fill-rule="evenodd" clip-rule="evenodd" fill="#ED6E00" points="94.99,44.54 83.05,87.33 115.7,87.33 "/>
<path fill-rule="evenodd" clip-rule="evenodd" fill="#DBE836" d="M40.44,87.33c10.35-21.51,28.13-38.77,50.02-48.44L76.94,87.33
	H40.44z"/>
<path fill-rule="evenodd" clip-rule="evenodd" fill="#00B8E0" d="M48.75,188.44c-3.14-4.47-5.92-9.21-8.31-14.17H52.7L48.75,188.44z
	"/>
<path fill-rule="evenodd" clip-rule="evenodd" fill="#707061" d="M91.21,223.04c-14.87-6.42-27.88-16.33-38-28.71l5.6-20.07h44.41
	L91.21,223.04z"/>
<path fill-rule="evenodd" clip-rule="evenodd" fill="#ED6E00" d="M144.38,230.35c-4.38,0.58-8.84,0.89-13.37,0.89
	c-12.03,0-23.57-2.12-34.27-6l12.55-50.97h46.52L144.38,230.35z"/>
<path fill-rule="evenodd" clip-rule="evenodd" fill="#D1CCC4" d="M179.36,218.85c-8.86,4.88-18.53,8.45-28.77,10.48l10.03-49.19
	L179.36,218.85z"/>
<path fill-rule="evenodd" clip-rule="evenodd" fill="#707061" d="M195.31,207.94c-3.44,2.87-7.07,5.51-10.87,7.91l-19.94-41.19
	l30.62,4.59L195.31,207.94z"/>
<path fill-rule="evenodd" clip-rule="evenodd" fill="#D1CCC4" d="M217.1,182.54c-4.44,7.38-9.81,14.14-15.94,20.12l-0.15-22.53
	L217.1,182.54z"/>
<path fill-rule="evenodd" clip-rule="evenodd" fill="#DBE836" d="M221.57,174.27c-0.45,0.93-0.91,1.86-1.39,2.78l-18.53-2.78H221.57
	z"/>
<path fill-rule="evenodd" clip-rule="evenodd" fill="#007A5E" d="M200.21,58.01c8.78,8.35,16.05,18.28,21.36,29.32H200.4
	L200.21,58.01z"/>
<path fill-rule="evenodd" clip-rule="evenodd" fill="#ED6E00" d="M187.59,47.81c2.31,1.58,4.54,3.24,6.71,5l0.23,34.52h-14.99
	L187.59,47.81z"/>
<path fill-rule="evenodd" clip-rule="evenodd" fill="#F7B512" d="M144.05,31.2c13.82,1.79,26.75,6.4,38.22,13.22l-8.75,42.91h-35.85
	L144.05,31.2z"/>
<path fill-rule="evenodd" clip-rule="evenodd" fill="#00B8E0" d="M131,30.36c2.42,0,4.82,0.09,7.19,0.26l-6.44,56.71h-9.51
	L97.45,36.11C107.94,32.39,119.23,30.36,131,30.36z"/>
<polygon fill-rule="evenodd" clip-rule="evenodd" fill="#EDEBDF" points="53.96,125.46 53.96,107.39 41.79,107.39 41.79,154.21 
	53.96,154.21 53.96,135.02 71.54,135.02 71.54,154.21 83.71,154.21 83.71,107.39 71.54,107.39 71.54,125.46 "/>
<path fill-rule="evenodd" clip-rule="evenodd" fill="#EDEBDF" d="M115.2,105.84c-13.48,0-25.9,9.94-25.9,24.1
	c0,15.15,10.87,25.83,25.9,25.83s25.9-10.68,25.9-25.83C141.09,115.77,128.67,105.84,115.2,105.84L115.2,105.84z M115.2,117.63
	c7.27,0,13.23,5.9,13.23,12.36c0,8.07-5.96,13.97-13.23,13.97c-7.27,0-13.23-5.9-13.23-13.97
	C101.97,123.53,107.93,117.63,115.2,117.63z"/>
<path fill-rule="evenodd" clip-rule="evenodd" fill="#EDEBDF" d="M146.75,154.21h17.26c12.98,0,23.79-10.25,23.79-23.41
	c0-13.17-10.74-23.41-23.79-23.41h-17.26V154.21L146.75,154.21z M158.92,117.7h2.86c7.83,0,13.35,4.72,13.35,13.1
	c0,9.13-6.21,13.1-13.48,13.1h-2.73V117.7z"/>
<polygon fill-rule="evenodd" clip-rule="evenodd" fill="#EDEBDF" points="205.62,107.39 193.45,107.39 193.45,154.21 220.21,154.21 
	220.21,143.9 205.62,143.9 "/>
<g>
	<path fill-rule="evenodd" clip-rule="evenodd" fill="#00B8E0" d="M235.79,154.21h12.17v-15.53h6.89c10.62,0,16.58-4.84,16.58-15.9
		c0-10.74-6.96-15.4-17.02-15.4h-18.63V154.21L235.79,154.21z M247.96,117.2h2.05c4.72,0,8.76,0.06,8.76,5.96
		c0,5.71-4.35,5.71-8.76,5.71h-2.05V117.2z"/>
	<path fill-rule="evenodd" clip-rule="evenodd" fill="#00B8E0" d="M301.06,135.02c6.65-1.18,10.25-6.77,10.25-13.23
		c0-10-7.02-14.41-16.27-14.41h-18.2v46.83h12.17V136.2h0.12l11.49,18.01h15.15L301.06,135.02L301.06,135.02z M289.01,116.7h1.18
		c3.97,0,8.45,0.74,8.45,5.84c0,5.09-4.47,5.84-8.45,5.84h-1.18V116.7z"/>
	<path fill-rule="evenodd" clip-rule="evenodd" fill="#00B8E0" d="M342.61,105.83c-13.48,0-25.9,9.94-25.9,24.1
		c0,15.15,10.87,25.84,25.9,25.84c15.03,0,25.9-10.68,25.9-25.84C368.51,115.77,356.09,105.83,342.61,105.83L342.61,105.83z
		 M342.61,117.63c7.27,0,13.23,5.9,13.23,12.36c0,8.07-5.96,13.97-13.23,13.97c-7.27,0-13.23-5.9-13.23-13.97
		C329.38,123.54,335.34,117.63,342.61,117.63z"/>
	<polygon fill-rule="evenodd" clip-rule="evenodd" fill="#00B8E0" points="392.79,117.7 402.85,117.7 402.85,107.39 370.56,107.39 
		370.56,117.7 380.62,117.7 380.62,154.21 392.79,154.21 	"/>
	<path fill-rule="evenodd" clip-rule="evenodd" fill="#00B8E0" d="M430.8,105.83c-13.48,0-25.9,9.94-25.9,24.1
		c0,15.15,10.87,25.84,25.9,25.84c15.03,0,25.9-10.68,25.9-25.84C456.7,115.77,444.27,105.83,430.8,105.83L430.8,105.83z
		 M430.8,117.63c7.27,0,13.23,5.9,13.23,12.36c0,8.07-5.96,13.97-13.23,13.97c-7.27,0-13.23-5.9-13.23-13.97
		C417.57,123.54,423.53,117.63,430.8,117.63z"/>
	<path fill-rule="evenodd" clip-rule="evenodd" fill="#00B8E0" d="M495.82,108.51c-3.6-1.49-7.2-2.36-11.12-2.36
		c-6.58,0-13.23,2.86-17.82,7.58c-4.47,4.6-6.89,10.74-6.89,17.14c0,6.96,2.36,13.04,7.52,17.7c4.84,4.41,11.05,6.89,17.58,6.89
		c3.79,0,6.71-0.93,10.74-2.17v-14.59c-2.55,3.04-6.52,4.97-10.5,4.97c-7.58,0-12.67-5.34-12.67-12.73
		c0-7.27,5.03-12.98,12.48-12.98c4.16,0,8.2,1.8,10.68,5.15V108.51z"/>
	<path fill-rule="evenodd" clip-rule="evenodd" fill="#00B8E0" d="M526.87,105.83c-13.48,0-25.9,9.94-25.9,24.1
		c0,15.15,10.87,25.84,25.9,25.84c15.03,0,25.9-10.68,25.9-25.84C552.77,115.77,540.35,105.83,526.87,105.83L526.87,105.83z
		 M526.87,117.63c7.27,0,13.23,5.9,13.23,12.36c0,8.07-5.96,13.97-13.23,13.97c-7.27,0-13.23-5.9-13.23-13.97
		C513.65,123.54,519.61,117.63,526.87,117.63z"/>
	<polygon fill-rule="evenodd" clip-rule="evenodd" fill="#00B8E0" points="570.6,107.39 558.42,107.39 558.42,154.21 585.19,154.21 
		585.19,143.9 570.6,143.9 	"/>
</g>
<path fill-rule="evenodd" clip-rule="evenodd" fill="#00669E" d="M251.77,185.77l-3.16,13.59h2.67l0.49-2.29h2.72l0.5,2.29h2.87
	l-3.26-13.59H251.77L251.77,185.77z M254.1,194.94h-1.89l0.58-3.62l0.29-2.06h0.04l0.31,2.06L254.1,194.94L254.1,194.94z
	 M264.54,186.22c-0.74-0.43-1.51-0.67-2.38-0.67c-2.31,0-3.55,1.86-3.55,4c0,1.98,0.96,2.99,2.51,4.04
	c0.76,0.54,1.59,0.94,1.59,1.98c0,0.9-0.68,1.48-1.55,1.48c-0.79,0-1.41-0.29-2.04-0.72v2.56c0.61,0.45,1.55,0.68,2.31,0.68
	c2.52,0,3.91-1.82,3.91-4.24c0-3.68-4.09-3.8-4.09-6.04c0-0.83,0.52-1.33,1.35-1.33c0.74,0,1.41,0.4,1.95,0.87V186.22L264.54,186.22
	z M272.47,186.22c-0.74-0.43-1.51-0.67-2.38-0.67c-2.31,0-3.55,1.86-3.55,4c0,1.98,0.96,2.99,2.51,4.04
	c0.76,0.54,1.59,0.94,1.59,1.98c0,0.9-0.68,1.48-1.55,1.48c-0.79,0-1.41-0.29-2.04-0.72v2.56c0.61,0.45,1.55,0.68,2.31,0.68
	c2.52,0,3.91-1.82,3.91-4.24c0-3.68-4.09-3.8-4.09-6.04c0-0.83,0.52-1.33,1.35-1.33c0.74,0,1.41,0.4,1.95,0.87V186.22L272.47,186.22
	z M274.81,185.77v13.59h5.45v-2.52h-2.76v-3.07h2.4v-2.52h-2.4v-2.96h2.72v-2.52H274.81L274.81,185.77z M281.2,185.77v2.52h2.11
	v11.07h2.69v-11.07h2.13v-2.52H281.2L281.2,185.77z M288.01,192.2h4.51v2.4h-4.51V192.2L288.01,192.2z M298.49,195.23
	c0,1.14-0.63,1.93-1.71,1.88v-3.68C297.84,193.39,298.49,194.17,298.49,195.23L298.49,195.23z M296.7,199.36
	c2.45,0,4.43-1.14,4.43-3.82c0-1.17-0.56-2.61-1.68-3.15c1.01-0.69,1.46-1.6,1.46-2.81c0-1.14-0.49-2.34-1.39-3.06
	c-0.87-0.7-1.77-0.74-2.81-0.74h-2.63v13.59H296.7L296.7,199.36z M298.38,189.63c0,1.03-0.6,1.71-1.6,1.71v-3.32
	C297.8,187.97,298.38,188.63,298.38,189.63L298.38,189.63z M305.07,185.77l-3.16,13.59h2.67l0.49-2.29h2.72l0.5,2.29h2.87
	l-3.26-13.59H305.07L305.07,185.77z M307.39,194.94h-1.89l0.58-3.62l0.29-2.06h0.04l0.31,2.06L307.39,194.94L307.39,194.94z
	 M319.02,185.86c-0.45-0.16-0.9-0.25-1.37-0.25c-3.66,0-5.9,3.46-5.9,6.83c0,3.57,2.15,7.07,6.02,7.07c0.43,0,0.85-0.07,1.24-0.23
	v-2.54c-0.34,0.11-0.68,0.2-1.03,0.2c-2.34,0-3.37-2.49-3.37-4.51c0-2.09,1.03-4.24,3.39-4.24c0.34,0,0.67,0.05,1.01,0.14V185.86
	L319.02,185.86z M320.39,185.77v13.59h2.69v-6.92h0.04l2.47,6.92h2.83l-2.83-7.32l2.51-6.27h-2.74l-2.24,6.08h-0.04v-6.08H320.39
	L320.39,185.77z M329.64,185.77v13.59h5.45v-2.52h-2.76v-3.07h2.4v-2.52h-2.4v-2.96h2.72v-2.52H329.64L329.64,185.77z
	 M339.11,199.36c4.24,0,5.73-2.81,5.73-6.69c0-7.59-5.63-6.91-6.09-6.91h-2.04v13.59H339.11L339.11,199.36z M339.4,196.95v-8.76
	c2.22,0,2.76,2.74,2.76,4.47C342.16,194.35,341.56,197.05,339.4,196.95L339.4,196.95z M349.36,185.77v13.59h2.69v-6.24l-0.02-0.56
	l-0.13-1.37l0.04-0.04l3.32,8.2h2.54v-13.59h-2.69v6.11c0,0.7,0.05,1.41,0.22,2.06l-0.04,0.04l-3.35-8.2H349.36L349.36,185.77z
	 M363.98,185.55c-2.4,0-4.78,1.91-4.78,7.01c0,5.1,2.38,7.01,4.78,7.01c2.4,0,4.78-1.91,4.78-7.01
	C368.76,187.46,366.38,185.55,363.98,185.55L363.98,185.55z M362.07,192.57c0-1.21,0.13-4.53,1.91-4.53c1.78,0,1.91,3.32,1.91,4.53
	c0,1.08-0.13,4.53-1.91,4.53C362.2,197.09,362.07,193.65,362.07,192.57L362.07,192.57z M370.18,185.77v13.59h2.69v-6.24l-0.02-0.56
	l-0.13-1.37l0.04-0.04l3.32,8.2h2.54v-13.59h-2.69v6.11c0,0.7,0.05,1.41,0.22,2.06l-0.04,0.04l-3.35-8.2H370.18L370.18,185.77z
	 M380.17,192.2v2.4h4.51v-2.4H380.17L380.17,192.2z M388.65,199.36c4.24,0,5.73-2.81,5.73-6.69c0-7.59-5.63-6.91-6.09-6.91h-2.04
	v13.59H388.65L388.65,199.36z M388.94,196.95v-8.76c2.22,0,2.76,2.74,2.76,4.47C391.69,194.35,391.1,197.05,388.94,196.95
	L388.94,196.95z M395.8,185.77v13.59h5.45v-2.52h-2.76v-3.07h2.4v-2.52h-2.4v-2.96h2.72v-2.52H395.8L395.8,185.77z M407.27,195.23
	c0,1.14-0.63,1.93-1.71,1.88v-3.68C406.62,193.39,407.27,194.17,407.27,195.23L407.27,195.23z M405.49,199.36
	c2.45,0,4.44-1.14,4.44-3.82c0-1.17-0.56-2.61-1.68-3.15c1.01-0.69,1.46-1.6,1.46-2.81c0-1.14-0.49-2.34-1.39-3.06
	c-0.86-0.7-1.77-0.74-2.81-0.74h-2.63v13.59H405.49L405.49,199.36z M407.17,189.63c0,1.03-0.6,1.71-1.61,1.71v-3.32
	C406.59,187.97,407.17,188.63,407.17,189.63L407.17,189.63z M410.82,185.77v2.52h2.11v11.07h2.69v-11.07h2.13v-2.52H410.82
	L410.82,185.77z M422.07,185.77v13.59h2.69v-13.59H422.07L422.07,185.77z M426.66,185.77v13.59h2.69v-6.24l-0.02-0.56l-0.13-1.37
	l0.04-0.04l3.32,8.2h2.54v-13.59h-2.69v6.11c0,0.7,0.05,1.41,0.22,2.06l-0.04,0.04l-3.35-8.2H426.66L426.66,185.77z M436.31,185.77
	v2.52h2.11v11.07h2.69v-11.07h2.13v-2.52H436.31L436.31,185.77z M444.46,185.77v13.59h5.45v-2.52h-2.76v-3.07h2.4v-2.52h-2.4v-2.96
	h2.72v-2.52H444.46L444.46,185.77z M451.53,185.77v13.59h5.5v-2.52h-2.81v-11.07H451.53L451.53,185.77z M458.25,185.77v13.59h5.5
	v-2.52h-2.81v-11.07H458.25L458.25,185.77z M464.98,185.77v13.59h2.69v-13.59H464.98L464.98,185.77z M473.9,191.79v2.52h1.71
	c0,0.94-0.22,2.78-1.59,2.78c-1.98,0-2.07-3.12-2.07-4.53c0-1.28,0.18-4.63,2-4.53c1.03,0,1.24,1.06,1.37,1.75l2.61-1.01
	c-0.58-1.93-1.93-3.23-4-3.23c-3.84,0-4.85,3.95-4.85,7.09c0,3.01,1.19,6.94,4.85,6.94c3.66,0,4.36-3.84,4.36-6.72v-1.06H473.9
	L473.9,191.79z M479.72,185.77v13.59h5.45v-2.52h-2.76v-3.07h2.4v-2.52h-2.4v-2.96h2.72v-2.52H479.72L479.72,185.77z M486.79,185.77
	v13.59h2.69v-6.24l-0.02-0.56l-0.13-1.37l0.04-0.04l3.32,8.2h2.54v-13.59h-2.69v6.11c0,0.7,0.05,1.41,0.22,2.06l-0.04,0.04
	l-3.35-8.2H486.79L486.79,185.77z M496.44,185.77v2.52h2.11v11.07h2.69v-11.07h2.13v-2.52H496.44L496.44,185.77z M514.46,185.86
	c-0.45-0.16-0.9-0.25-1.37-0.25c-3.66,0-5.9,3.46-5.9,6.83c0,3.57,2.15,7.07,6.02,7.07c0.43,0,0.85-0.07,1.24-0.23v-2.54
	c-0.34,0.11-0.68,0.2-1.03,0.2c-2.34,0-3.37-2.49-3.37-4.51c0-2.09,1.03-4.24,3.39-4.24c0.34,0,0.67,0.05,1.01,0.14V185.86
	L514.46,185.86z M520.12,185.55c-2.4,0-4.78,1.91-4.78,7.01c0,5.1,2.38,7.01,4.78,7.01c2.4,0,4.78-1.91,4.78-7.01
	C524.9,187.46,522.52,185.55,520.12,185.55L520.12,185.55z M518.21,192.57c0-1.21,0.13-4.53,1.91-4.53c1.78,0,1.91,3.32,1.91,4.53
	c0,1.08-0.13,4.53-1.91,4.53C518.34,197.09,518.21,193.65,518.21,192.57L518.21,192.57z M526.32,185.77v13.59h2.69v-6.24l-0.02-0.56
	l-0.13-1.37l0.04-0.04l3.32,8.2h2.54v-13.59h-2.69v6.11c0,0.7,0.05,1.41,0.22,2.06l-0.04,0.04l-3.35-8.2H526.32L526.32,185.77z
	 M535.97,185.77v2.52h2.11v11.07h2.69v-11.07h2.13v-2.52H535.97L535.97,185.77z M546.8,199.36v-6.27h0.04l2.36,6.27h2.83l-2.36-6.18
	c1.34-0.74,1.93-2.02,1.93-3.52c0-3.71-3.07-3.89-4.78-3.89h-2.71v13.59H546.8L546.8,199.36z M546.8,187.99h0.36
	c1.35-0.07,1.82,0.72,1.82,1.69c0,1.12-0.49,1.95-1.71,1.95l-0.47-0.02V187.99L546.8,187.99z M556.02,185.77l-3.16,13.59h2.67
	l0.49-2.29h2.72l0.5,2.29h2.87l-3.26-13.59H556.02L556.02,185.77z M558.34,194.94h-1.89l0.58-3.62l0.29-2.06h0.04l0.31,2.06
	L558.34,194.94L558.34,194.94z M569.97,185.86c-0.45-0.16-0.9-0.25-1.37-0.25c-3.66,0-5.9,3.46-5.9,6.83c0,3.57,2.15,7.07,6.02,7.07
	c0.43,0,0.85-0.07,1.24-0.23v-2.54c-0.34,0.11-0.68,0.2-1.03,0.2c-2.34,0-3.37-2.49-3.37-4.51c0-2.09,1.03-4.24,3.39-4.24
	c0.34,0,0.67,0.05,1.01,0.14V185.86L569.97,185.86z M570.66,185.77v2.52h2.11v11.07h2.69v-11.07h2.13v-2.52H570.66L570.66,185.77z
	 M584.4,186.22c-0.74-0.43-1.51-0.67-2.38-0.67c-2.31,0-3.55,1.86-3.55,4c0,1.98,0.96,2.99,2.51,4.04c0.76,0.54,1.59,0.94,1.59,1.98
	c0,0.9-0.68,1.48-1.55,1.48c-0.79,0-1.41-0.29-2.04-0.72v2.56c0.61,0.45,1.55,0.68,2.31,0.68c2.52,0,3.91-1.82,3.91-4.24
	c0-3.68-4.09-3.8-4.09-6.04c0-0.83,0.52-1.33,1.35-1.33c0.74,0,1.41,0.4,1.95,0.87V186.22z"/>
</svg>
