<?xml version="1.0" encoding="utf-8"?>
<!-- Generator: Adobe Illustrator 26.0.2, SVG Export Plug-In . SVG Version: 6.00 Build 0)  -->
<svg version="1.1" id="Layer_1" xmlns="http://www.w3.org/2000/svg" xmlns:xlink="http://www.w3.org/1999/xlink" x="0px" y="0px"
	 viewBox="0 0 624 95.04" enable-background="new 0 0 624 95.04" xml:space="preserve">
<g>
	<polygon fill-rule="evenodd" clip-rule="evenodd" fill="#ED6E00" points="73.16,15.3 69.79,27.38 78.92,27.2 	"/>
	<polygon fill-rule="evenodd" clip-rule="evenodd" fill="#00669E" points="89.77,34.75 84.99,36.56 88.1,42.98 	"/>
	<polygon fill-rule="evenodd" clip-rule="evenodd" fill="#00B8E0" points="84.38,35.3 90.1,33.14 91.08,28.35 81.11,28.55 	"/>
	<polygon fill-rule="evenodd" clip-rule="evenodd" fill="#F7B512" points="87.16,44.22 83.69,37.05 71.09,41.82 	"/>
	<polygon fill-rule="evenodd" clip-rule="evenodd" fill="#DBE836" points="96.67,30.66 96.65,28.24 92.5,28.33 91.64,32.56 	"/>
	<polygon fill-rule="evenodd" clip-rule="evenodd" fill="#ED6E00" points="96.77,45.66 96.68,32.14 91.31,34.17 89.2,44.53 	"/>
	<polygon fill-rule="evenodd" clip-rule="evenodd" fill="#D1CCC4" points="103.41,28.11 98.04,28.22 98.05,30.14 	"/>
	<path fill-rule="evenodd" clip-rule="evenodd" fill="#DBE836" d="M59.37,27.58c2.2-6.09,6.83-11.02,12.72-13.62l-3.75,13.44
		L59.37,27.58z"/>
	<path fill-rule="evenodd" clip-rule="evenodd" fill="#00B8E0" d="M62.25,49.24c-2.7-3.85-4.29-8.54-4.29-13.6
		c0-2.32,0.33-4.55,0.95-6.67l9.04-0.18L62.25,49.24z"/>
	<path fill-rule="evenodd" clip-rule="evenodd" fill="#707061" d="M72.27,57.4c-3.51-1.52-6.58-3.85-8.96-6.77l6.1-21.86l10.19-0.2
		l3.5,7.22l-17.47,6.6l9.98,1.5L72.27,57.4z"/>
	<path fill-rule="evenodd" clip-rule="evenodd" fill="#ED6E00" d="M84.81,59.12c-1.03,0.14-2.09,0.21-3.15,0.21
		c-2.84,0-5.56-0.5-8.08-1.42l3.4-13.81l10.57,1.58L84.81,59.12z"/>
	<path fill-rule="evenodd" clip-rule="evenodd" fill="#D1CCC4" d="M93.06,56.41c-2.09,1.15-4.37,1.99-6.78,2.47l2.37-11.6
		L93.06,56.41z"/>
	<path fill-rule="evenodd" clip-rule="evenodd" fill="#707061" d="M96.82,53.84c-0.81,0.68-1.67,1.3-2.56,1.86l-4.7-9.71l7.22,1.08
		L96.82,53.84z"/>
	<path fill-rule="evenodd" clip-rule="evenodd" fill="#D1CCC4" d="M101.96,47.85c-1.05,1.74-2.32,3.33-3.76,4.75l-0.03-5.31
		L101.96,47.85z"/>
	<path fill-rule="evenodd" clip-rule="evenodd" fill="#DBE836" d="M104.46,29.2c0.58,2.05,0.89,4.21,0.89,6.44
		c0,3.93-0.96,7.64-2.66,10.91l-4.53-0.68l-0.09-14.25L104.46,29.2z"/>
	<path fill-rule="evenodd" clip-rule="evenodd" fill="#007A5E" d="M97.98,18.47c2.42,2.3,4.35,5.11,5.63,8.25l-5.57,0.11
		L97.98,18.47z"/>
	<path fill-rule="evenodd" clip-rule="evenodd" fill="#ED6E00" d="M95,16.07c0.54,0.37,1.07,0.76,1.58,1.18l0.06,9.61l-3.86,0.07
		L95,16.07z"/>
	<path fill-rule="evenodd" clip-rule="evenodd" fill="#F7B512" d="M84.73,12.15c3.26,0.42,6.31,1.51,9.02,3.12l-2.38,11.69
		l-8.33,0.16L84.73,12.15z"/>
	<path fill-rule="evenodd" clip-rule="evenodd" fill="#00B8E0" d="M81.65,11.95c0.57,0,1.14,0.02,1.7,0.06l-1.72,15.14l-1.18,0.02
		l-6.71-13.86C76.21,12.43,78.88,11.95,81.65,11.95z"/>
	<polygon fill-rule="evenodd" clip-rule="evenodd" fill="#00669E" points="23.55,30.57 23.55,13.43 12,13.43 12,57.86 23.55,57.86 
		23.55,39.65 40.23,39.65 40.23,57.86 51.78,57.86 51.78,13.43 40.23,13.43 40.23,30.57 	"/>
	<path fill-rule="evenodd" clip-rule="evenodd" fill="#00669E" d="M110.89,57.86h16.38c12.32,0,22.57-9.72,22.57-22.22
		c0-12.49-10.2-22.22-22.57-22.22h-16.38V57.86L110.89,57.86z M122.44,23.21h2.71c7.43,0,12.67,4.48,12.67,12.43
		c0,8.66-5.89,12.43-12.79,12.43h-2.59V23.21z"/>
	<polygon fill-rule="evenodd" clip-rule="evenodd" fill="#00669E" points="167.46,13.43 155.91,13.43 155.91,57.86 181.31,57.86 
		181.31,48.08 167.46,48.08 	"/>
	<path fill-rule="evenodd" clip-rule="evenodd" fill="#00B8E0" d="M221.6,23.21v-9.78h-25.52v44.43h11.55V40.42h12.67v-9.78h-12.67
		v-7.43H221.6L221.6,23.21z M250.36,11.95c-12.79,0-24.57,9.43-24.57,22.86c0,14.38,10.31,24.51,24.57,24.51
		s24.57-10.14,24.57-24.51C274.93,21.38,263.15,11.95,250.36,11.95L250.36,11.95z M250.36,23.15c6.89,0,12.55,5.6,12.55,11.73
		c0,7.66-5.66,13.26-12.55,13.26c-6.89,0-12.55-5.6-12.55-13.26C237.81,28.75,243.47,23.15,250.36,23.15L250.36,23.15z
		 M307.28,13.43v23.39c0,5.77-0.41,12.08-7.84,12.08c-7.43,0-7.84-6.31-7.84-12.08V13.43h-11.55v24.98c0,5.72,0.23,11.37,4.65,15.68
		c3.71,3.65,9.55,4.95,14.73,4.95s11.02-1.3,14.73-4.95c4.42-4.3,4.66-9.96,4.66-15.68V13.43H307.28L307.28,13.43z M326.14,57.86
		h11.55V30.63h0.12l21.16,27.22h11.55V13.43h-11.55v27.17h-0.12l-21.15-27.17h-11.55V57.86L326.14,57.86z M378.06,57.86h16.38
		c12.32,0,22.57-9.72,22.57-22.22c0-12.49-10.19-22.22-22.57-22.22h-16.38V57.86L378.06,57.86z M389.61,23.21h2.71
		c7.43,0,12.67,4.48,12.67,12.43c0,8.66-5.89,12.43-12.79,12.43h-2.59V23.21L389.61,23.21z M449.6,50.14l2.89,7.72h12.32
		l-16.74-44.43h-12.61l-17.09,44.43h12.26l3.06-7.72H449.6L449.6,50.14z M446.47,41.3h-9.61l4.77-14.14h0.12L446.47,41.3
		L446.47,41.3z M482.54,23.21v34.65h-11.55V23.21h-9.55v-9.78h30.64v9.78H482.54L482.54,23.21z M507.82,13.43h-11.55v44.43h11.55
		V13.43L507.82,13.43z M537.69,11.95c-12.79,0-24.57,9.43-24.57,22.86c0,14.38,10.31,24.51,24.57,24.51
		c14.26,0,24.57-10.14,24.57-24.51C562.26,21.38,550.48,11.95,537.69,11.95L537.69,11.95z M537.69,23.15
		c6.9,0,12.55,5.6,12.55,11.73c0,7.66-5.66,13.26-12.55,13.26c-6.89,0-12.55-5.6-12.55-13.26C525.14,28.75,530.8,23.15,537.69,23.15
		L537.69,23.15z M567.63,57.86h11.55V30.63h0.12l21.16,27.22H612V13.43h-11.55v27.17h-0.12l-21.15-27.17h-11.55V57.86z"/>
	<path fill-rule="evenodd" clip-rule="evenodd" fill="#00669E" d="M315.43,69.9l-3.01,12.98h2.55l0.47-2.19h2.6l0.48,2.19h2.74
		l-3.12-12.98H315.43L315.43,69.9z M317.65,78.66h-1.81l0.55-3.46l0.28-1.96h0.03L317,75.2L317.65,78.66L317.65,78.66z
		 M330.57,70.33c-0.71-0.41-1.45-0.64-2.27-0.64c-2.2,0-3.39,1.77-3.39,3.82c0,1.89,0.91,2.86,2.39,3.86
		c0.72,0.52,1.51,0.9,1.51,1.89c0,0.86-0.65,1.41-1.48,1.41c-0.76,0-1.34-0.28-1.95-0.69v2.45c0.59,0.43,1.48,0.65,2.2,0.65
		c2.41,0,3.74-1.74,3.74-4.05c0-3.51-3.91-3.63-3.91-5.77c0-0.79,0.5-1.27,1.29-1.27c0.71,0,1.34,0.38,1.86,0.83V70.33L330.57,70.33
		z M332.03,69.9l2.62,12.98h2.24l1.48-6.85c0.19-0.79,0.28-1.58,0.41-2.38h0.03c0.12,0.79,0.28,1.58,0.36,2.38l1.33,6.85h2.22
		l2.68-12.98h-2.68l-1.02,6.23c-0.15,0.91-0.17,1.81-0.26,2.72h-0.03l-1.65-8.95h-2.03l-1.29,6.2c-0.19,0.91-0.26,1.84-0.38,2.75
		h-0.03c-0.09-0.91-0.12-1.84-0.28-2.75l-1.1-6.2H332.03L332.03,69.9z M346.46,69.9v12.98h2.57V69.9H346.46L346.46,69.9z
		 M350.2,69.9v2.41h2.01v10.57h2.57V72.31h2.03V69.9H350.2L350.2,69.9z M357.92,69.9v2.41h3.77l-4.32,10.57h7.82v-2.41h-4.08
		l4.44-10.57H357.92L357.92,69.9z M366.72,69.9v12.98h5.2v-2.41h-2.63v-2.93h2.29v-2.41h-2.29v-2.82h2.6V69.9H366.72L366.72,69.9z
		 M376.04,82.88v-5.99h0.03l2.26,5.99h2.7l-2.25-5.9c1.27-0.71,1.84-1.93,1.84-3.36c0-3.55-2.93-3.72-4.56-3.72h-2.58v12.98H376.04
		L376.04,82.88z M376.04,72.02h0.34c1.29-0.07,1.74,0.69,1.74,1.62c0,1.07-0.46,1.86-1.64,1.86l-0.45-0.02V72.02L376.04,72.02z
		 M382.6,69.9v12.98h5.25v-2.41h-2.68V69.9H382.6L382.6,69.9z M391.25,69.9l-3.01,12.98h2.55l0.47-2.19h2.6l0.48,2.19h2.74
		l-3.12-12.98H391.25L391.25,69.9z M393.47,78.66h-1.81l0.55-3.46l0.28-1.96h0.03l0.29,1.96L393.47,78.66L393.47,78.66z
		 M398.11,69.9v12.98h2.57v-5.96l-0.02-0.53l-0.12-1.31l0.03-0.03l3.17,7.83h2.43V69.9h-2.57v5.84c0,0.67,0.05,1.34,0.21,1.96
		l-0.03,0.03l-3.2-7.83H398.11L398.11,69.9z M410.26,82.88c4.05,0,5.47-2.69,5.47-6.39c0-7.25-5.37-6.59-5.82-6.59h-1.95v12.98
		H410.26L410.26,82.88z M410.53,80.58v-8.37c2.12,0,2.63,2.62,2.63,4.27C413.17,78.1,412.6,80.68,410.53,80.58L410.53,80.58z
		 M420.05,69.9v12.98h2.57v-5.96l-0.02-0.53l-0.12-1.31l0.03-0.03l3.17,7.83h2.43V69.9h-2.57v5.84c0,0.67,0.05,1.34,0.21,1.96
		l-0.03,0.03l-3.2-7.83H420.05L420.05,69.9z M434.01,69.7c-2.29,0-4.56,1.82-4.56,6.7c0,4.87,2.27,6.7,4.56,6.7
		c2.29,0,4.56-1.82,4.56-6.7C438.57,71.52,436.3,69.7,434.01,69.7L434.01,69.7z M432.18,76.39c0-1.15,0.12-4.32,1.82-4.32
		c1.7,0,1.82,3.17,1.82,4.32c0,1.03-0.12,4.32-1.82,4.32C432.3,80.71,432.18,77.43,432.18,76.39L432.18,76.39z M439.93,69.9v12.98
		h2.57v-5.96l-0.02-0.53l-0.12-1.31l0.03-0.03l3.17,7.83h2.43V69.9h-2.57v5.84c0,0.67,0.05,1.34,0.21,1.96l-0.03,0.03l-3.2-7.83
		H439.93L439.93,69.9z M449.47,76.05v2.29h4.3v-2.29H449.47L449.47,76.05z M461.74,69.99c-0.43-0.15-0.86-0.24-1.31-0.24
		c-3.49,0-5.63,3.31-5.63,6.52c0,3.41,2.05,6.75,5.75,6.75c0.41,0,0.81-0.07,1.19-0.22v-2.43c-0.33,0.1-0.65,0.19-0.98,0.19
		c-2.24,0-3.22-2.38-3.22-4.3c0-2,0.98-4.05,3.24-4.05c0.33,0,0.64,0.05,0.96,0.14V69.99L461.74,69.99z M462.98,69.9v9.64
		c0,2.43,1.43,3.55,3.82,3.55c3.7,0,3.86-2.34,3.86-3.72V69.9h-2.56v8.95c-0.02,0.96-0.02,1.91-1.27,1.91
		c-1.39,0-1.27-1.48-1.27-2.46v-8.4H462.98L462.98,69.9z M477.75,70.33c-0.71-0.41-1.45-0.64-2.27-0.64c-2.2,0-3.39,1.77-3.39,3.82
		c0,1.89,0.91,2.86,2.39,3.86c0.72,0.52,1.51,0.9,1.51,1.89c0,0.86-0.65,1.41-1.48,1.41c-0.76,0-1.34-0.28-1.95-0.69v2.45
		c0.58,0.43,1.48,0.65,2.2,0.65c2.41,0,3.74-1.74,3.74-4.05c0-3.51-3.91-3.63-3.91-5.77c0-0.79,0.5-1.27,1.29-1.27
		c0.71,0,1.34,0.38,1.86,0.83V70.33L477.75,70.33z M479.33,69.9v2.41h2.01v10.57h2.57V72.31h2.03V69.9H479.33L479.33,69.9z
		 M491.21,69.7c-2.29,0-4.56,1.82-4.56,6.7c0,4.87,2.27,6.7,4.56,6.7c2.29,0,4.56-1.82,4.56-6.7
		C495.77,71.52,493.5,69.7,491.21,69.7L491.21,69.7z M489.39,76.39c0-1.15,0.12-4.32,1.82-4.32c1.7,0,1.82,3.17,1.82,4.32
		c0,1.03-0.12,4.32-1.82,4.32C489.51,80.71,489.39,77.43,489.39,76.39L489.39,76.39z M499.42,82.88c4.05,0,5.47-2.69,5.47-6.39
		c0-7.25-5.37-6.59-5.82-6.59h-1.95v12.98H499.42L499.42,82.88z M499.7,80.58v-8.37c2.12,0,2.63,2.62,2.63,4.27
		C502.33,78.1,501.76,80.68,499.7,80.58L499.7,80.58z M506.26,69.9v12.98h2.57V69.9H506.26L506.26,69.9z M512.89,69.9l-3.01,12.98
		h2.55l0.47-2.19h2.6l0.48,2.19h2.74l-3.12-12.98H512.89L512.89,69.9z M515.11,78.66h-1.81l0.55-3.46l0.28-1.96h0.03l0.29,1.96
		L515.11,78.66L515.11,78.66z M519.74,69.9v12.98h5.25v-2.41h-2.68V69.9H519.74L519.74,69.9z M529.11,69.9v12.98h2.57v-5.39h2.36
		v-2.41h-2.36v-2.77h2.62V69.9H529.11L529.11,69.9z M539.99,69.7c-2.29,0-4.56,1.82-4.56,6.7c0,4.87,2.27,6.7,4.56,6.7
		c2.29,0,4.56-1.82,4.56-6.7C544.55,71.52,542.28,69.7,539.99,69.7L539.99,69.7z M538.17,76.39c0-1.15,0.12-4.32,1.82-4.32
		c1.7,0,1.82,3.17,1.82,4.32c0,1.03-0.12,4.32-1.82,4.32C538.29,80.71,538.17,77.43,538.17,76.39L538.17,76.39z M545.84,69.9v9.64
		c0,2.43,1.43,3.55,3.82,3.55c3.7,0,3.86-2.34,3.86-3.72V69.9h-2.56v8.95c-0.02,0.96-0.02,1.91-1.27,1.91
		c-1.39,0-1.27-1.48-1.27-2.46v-8.4H545.84L545.84,69.9z M555.28,69.9v12.98h2.57v-5.96l-0.02-0.53l-0.12-1.31l0.03-0.03l3.17,7.83
		h2.43V69.9h-2.57v5.84c0,0.67,0.05,1.34,0.21,1.96l-0.03,0.03l-3.2-7.83H555.28L555.28,69.9z M567.43,82.88
		c4.04,0,5.47-2.69,5.47-6.39c0-7.25-5.37-6.59-5.82-6.59h-1.95v12.98H567.43L567.43,82.88z M567.71,80.58v-8.37
		c2.12,0,2.63,2.62,2.63,4.27C570.34,78.1,569.77,80.68,567.71,80.58L567.71,80.58z M576.5,69.9l-3.01,12.98h2.55l0.47-2.19h2.6
		l0.48,2.19h2.74l-3.12-12.98H576.5L576.5,69.9z M578.72,78.66h-1.81l0.55-3.46l0.28-1.96h0.03l0.29,1.96L578.72,78.66L578.72,78.66
		z M581.75,69.9h6.61v2.41h-2.03v10.57h-2.57V72.31h-2.01V69.9L581.75,69.9z M589.53,69.9v12.98h2.57V69.9H589.53L589.53,69.9z
		 M598.02,69.7c-2.29,0-4.56,1.82-4.56,6.7c0,4.87,2.27,6.7,4.56,6.7c2.29,0,4.56-1.82,4.56-6.7
		C602.58,71.52,600.31,69.7,598.02,69.7L598.02,69.7z M596.2,76.39c0-1.15,0.12-4.32,1.82-4.32c1.7,0,1.82,3.17,1.82,4.32
		c0,1.03-0.12,4.32-1.82,4.32C596.32,80.71,596.2,77.43,596.2,76.39L596.2,76.39z M603.94,69.9v12.98h2.57v-5.96l-0.02-0.53
		l-0.12-1.31l0.03-0.03l3.17,7.83H612V69.9h-2.57v5.84c0,0.67,0.05,1.34,0.21,1.96l-0.03,0.03l-3.2-7.83H603.94z"/>
</g>
</svg>
